<svg width="250" height="270" viewBox="0 0 250 270" fill="none" xmlns="http://www.w3.org/2000/svg">
<g clip-path="url(#clip0)">
<path d="M74.7079 166.884C65.1865 160.589 55.0273 154.557 48.0869 146.058C33.4765 131.069 22.2304 113.719 14.5419 95.4841C9.8935 83.6254 8.3017 70.9125 2.30561 59.5142C-3.95806 51.2328 3.38471 42.1866 14.1777 39.5555C18.9794 38.7775 27.4277 34.968 17.2294 37.6942C8.0849 43.329 7.20404 32.5733 16.579 31.8921C22.9775 31.179 25.333 26.7794 23.1425 22.8188C16.2714 19.0519 39.7978 14.9191 27.9589 9.29994C15.6347 -1.87757 45.205 -4.02936 37.9081 8.6672C36.164 18.4291 58.5781 6.87404 53.373 18.1492C58.6611 23.5648 73.1699 19.3843 72.8056 26.9771C80.5068 27.4219 83.1503 32.8638 90.372 33.2823C97.8691 36.1268 111.446 38.3639 113.993 45.4586C106.561 50.4015 89.3574 35.247 88.5263 48.9317C90.7744 69.1513 90.2011 89.9791 99.0009 109.233C103.163 120.89 113.259 130.065 122.371 139.146C131.095 148.037 142.908 154.301 154.952 159.57C165.514 163.756 176.9 166.529 188.414 168.274C193.082 165.274 201.325 154.118 208.604 158.818C208.956 164.111 194.155 169.874 207.91 169.288C215.994 167.238 221.595 174.536 228.248 167.952C234.379 174.054 253.726 164.056 249.366 176.528C243.466 179.727 234.864 177.794 228.958 182.195C219.22 178.106 211.466 185.85 200.681 184.873C188.708 186.675 176.522 187.401 164.385 187.415C144.467 186.095 124.129 185.538 105.182 179.709C94.5048 177.103 84.0898 171.993 74.7079 166.884V166.884ZM91.5283 173.013C101.95 176.796 112.143 180.789 123.566 181.996C141.689 184.111 160.405 187.373 178.592 184.4C170.361 181.278 161.849 185.613 153.649 182.168C143.815 183.944 133.261 181.712 123.259 180.611C111.892 176.357 99.6201 173.432 88.9745 167.903C75.666 163.82 95.8525 173.142 99.4472 173.899C107.762 177.863 90.3017 171.864 87.8359 170.217C80.871 166.932 79.9843 167.619 87.1484 170.952C88.5908 171.661 90.0156 172.407 91.5283 173.013V173.013ZM71.6943 161.234C81.7968 164.378 71.6494 155.266 67.0263 155.793C64.9755 152.803 59.1913 150.914 63.2714 149.309C55.9345 151.451 55.5829 141.168 52.1357 142.64C44.3701 140.579 49.1142 133.28 39.8613 128.795C39.0175 124.071 30.6718 119.977 28.0156 112.855C26.8408 109.207 18.5839 98.7372 23.6542 108.481C27.9706 117.861 35.5634 125.901 41.8857 133.924C46.79 141.565 52.5888 149.556 61.5224 154.322C64.537 156.753 67.4413 160.471 71.6933 161.234H71.6943ZM42.6015 134.385C42.9511 133.103 44.4472 137.159 42.6015 134.385V134.385ZM83.7958 165C86.0302 164.158 80.5771 163.939 83.7958 165V165ZM89.2744 166.681C88.707 164.362 86.7714 167.98 89.2744 166.681V166.681ZM96.1396 169.086C99.4023 166.47 91.1005 167.436 96.1396 169.086V169.086ZM107.902 174.595C109.888 172.132 101.548 173.668 107.902 174.595V174.595ZM85.3163 161.363C90.3847 158.604 78.7577 161.325 85.3163 161.363V161.363ZM90.4628 163.52C90.3154 162.065 88.6298 164.174 90.4628 163.52V163.52ZM116.19 177.016C120.328 179.211 140.349 181.824 127.813 177.917C125.711 178.288 104.568 172.889 116.19 177.016V177.016ZM75.3476 150.281C74.9452 148.823 68.9218 148.666 75.3476 150.281V150.281ZM87.3202 156.153C90.4423 154.323 80.8515 154.741 87.3202 156.153V156.153ZM97.3964 161.342C101.873 159.925 90.1435 159.92 97.3964 161.342V161.342ZM70.4687 145.821C75.3222 148.949 90.0488 146.224 77.9013 143.954C72.3779 141.48 59.9257 139.785 68.414 145.446L70.4687 145.821ZM104.225 163.133C106.248 160.241 95.7431 161.48 104.225 163.133V163.133ZM93.9677 156.285C105.833 159.103 83.9872 149.974 91.038 155.244L92.6034 155.84L93.9677 156.285ZM114.532 166.273C125.77 166.363 104.378 164.969 114.532 166.273V166.273ZM66.1464 140.357C65.705 138.598 63.3749 140.504 66.1464 140.357V140.357ZM133.542 175.234C133.842 172.058 129.876 177.601 133.542 175.234V175.234ZM85.329 150.227C84.6454 148.553 81.8173 150.157 85.329 150.227V150.227ZM67.2118 139.253C73.663 138.926 58.374 136.865 67.2118 139.253V139.253ZM45.749 127.596C44.9453 124.995 38.7314 122.923 45.749 127.596V127.596ZM102.092 157.644C100.91 156.511 101.535 157.89 102.092 157.644V157.644ZM137.155 175.729C137.048 173.995 135.246 176.382 137.155 175.729V175.729ZM98.9882 154.95C99.621 152.718 93.4843 154.273 98.9882 154.95V154.95ZM72.8632 141.034C77.666 140.604 65.1679 138.308 72.8632 141.034V141.034ZM117.055 164.111C124.538 161.62 109.762 162.897 117.055 164.111V164.111ZM94.0712 151.001C102.691 151.933 83.8095 146.068 92.1747 150.474L94.0712 151.001ZM124.032 166.482C132.086 162.442 129.43 175.954 137.693 167.625C145.841 162.624 130.655 173.807 140.694 168.516C147.961 164.432 158.688 170.453 165.465 172.412C170.336 172.213 175.075 175.954 180.074 173.677C189.691 171.499 161.263 170.448 168.714 166.588C159.915 168.742 153.415 164.024 149.085 159.285C139.212 157.369 127.801 153.13 122.871 145.784C120.859 143.031 125.771 146.176 121.135 141.668C115.189 137.224 112.221 132.174 108.228 126.77C103.458 124.634 102.896 118.34 102.417 126.562C102.456 121.372 96.6572 117.879 95.2392 119.328C95.2138 114.331 101.447 116.837 97.0849 113.14C96.1474 107.961 93.0556 102.563 92.1288 96.7135C90.6874 93.8961 91.9238 87.8593 87.2001 94.2391C85.4814 100.985 86.6318 85.9537 89.3076 90.9072C92.8193 85.8519 88.0419 86.4469 87.8505 87.1453C90.1376 82.8794 89.3007 76.8254 87.2509 79.1331C88.4706 74.6087 89.1796 62.4867 85.4316 64.6384C87.704 59.9056 89.7421 42.9892 79.8681 49.4413C75.871 49.4889 68.9433 50.66 65.6738 52.028C75.9355 56.783 64.6386 53.7449 60.456 52.9882C59.913 57.3887 55.7753 55.4888 50.6025 55.5315C58.8662 56.3899 46.579 62.6303 41.8486 60.206C35.6923 62.6746 47.1552 68.846 41.9697 70.7557C42.6093 73.6272 32.5439 69.7159 33.33 76.3592C27.3583 74.2435 32.5126 84.2368 35.5009 80.8565C45.6611 83.1691 42.6533 88.4337 42.9081 93.4398C41.2538 96.3532 34.7343 86.5872 41.4579 87.0386C36.1513 79.7978 35.5908 84.419 31.1835 87.7838C30.1621 88.0259 42.4228 92.5699 34.7285 94.8136C41.497 95.6942 41.6953 100.674 43.0751 103.825C47.1425 107.386 46.3046 99.8894 51.1787 104.173C48.0927 100.357 34.8554 93.4226 45.5146 95.6466C45.456 91.8091 43.5849 88.7119 46.8544 88.7866C50.0927 83.8659 43.4638 100.926 50.7568 94.6692C52.7734 93.9289 53.2792 89.7427 56.9062 95.0664C62.1738 99.4241 58.8095 102.578 51.3759 98.5862C52.704 102.38 61.3183 103.732 59.6962 109.663C61.413 114.879 63.8154 112.957 65.9091 112.657C67.5497 117.723 68.4843 113.998 68.5605 111.583C76.0761 112.937 74.3134 116.671 76.6689 119.279C81.8476 121.242 69.2558 105.965 78.1454 114.685C87.499 121.785 81.6572 124.747 73.2607 123.61C78.5732 123.249 80.2831 129.648 86.9326 129.422C92.9921 131.847 97.0986 141.153 86.6513 137.277C83.0302 134.53 70.2001 131.144 80.6806 136.366C90.3486 140.133 98.037 142.381 107.366 147.11C114.04 151.113 116.925 155.7 119.454 156.608C113.842 158.861 102.546 154.81 110.935 153.571C105.699 152.771 99.8124 150.544 104.824 156.023C109.09 159.018 119.927 158.7 121.875 159.038C120.227 162.087 117.399 162.329 121.938 162.565C116.874 164.835 123.567 165.189 124.033 166.482H124.032ZM113.675 141.899C110.591 139.189 109.793 134.118 113.126 138.527C114.838 139.108 118.6 146.82 113.675 141.899ZM147.412 159.908C149.334 159.802 147.469 161.136 147.412 159.908V159.908ZM108.81 135.255C108.687 131.16 109.92 138.415 108.81 135.255V135.255ZM105.457 131.466C101.575 125.172 110.342 133.248 105.457 131.466V131.466ZM64.8173 107.898C67.0976 107.386 65.9413 111.17 64.8173 107.898V107.898ZM97.162 122.628C98.5605 118.211 98.8037 126.331 97.162 122.628V122.628ZM74.3134 109.275C72.705 106.84 77.6796 111.563 74.3134 109.275V109.275ZM93.9179 114.556C90.246 107.645 96.5234 110.778 94.7353 115.689L93.9179 114.556ZM60.1054 95.6072C58.4648 93.338 55.7499 86.6832 56.6249 84.6504C57.4101 87.961 64.997 98.8923 60.3408 89.1797C55.2011 81.0387 66.4911 91.819 67.6533 93.8534C68.1962 95.8714 64.4794 93.3011 66.9951 98.0388C62.4042 92.6454 64.287 101.018 60.1054 95.6072ZM49.6581 89.5548C50.0859 84.2795 52.0468 93.1715 49.6581 89.5548V89.5548ZM54.3583 90.9171C56.5995 86.9368 58.1572 96.4664 54.3583 90.9171V90.9171ZM43.0488 83.5663C39.1591 80.3132 36.3427 77.3194 43.2333 81.5475C45.8837 81.6337 37.3339 74.7384 43.873 79.358C50.7431 80.4109 47.2626 88.8309 43.0488 83.5663ZM48.9872 83.4375C51.249 81.5541 50.1884 85.2889 48.9872 83.4375V83.4375ZM52.6464 84.419C49.2167 79.0256 56.8036 86.6841 52.6464 84.419V84.419ZM45.3798 78.5865C34.0712 70.1222 59.5878 83.0075 47.2255 80.1524L45.3798 78.5865ZM77.787 94.4057C72.8896 91.9421 76.4843 77.0461 78.1581 87.2314C82.9159 85.9373 77.8945 92.496 81.4394 92.4312C80.8847 96.5674 79.2949 98.0561 77.787 94.4057ZM89.7734 100.362C90.2519 95.8714 90.7822 103.433 89.7734 100.362V100.362ZM87.6923 98.6289C88.2284 96.7135 87.7431 100.888 87.6923 98.6289V98.6289ZM47.5947 75.8061C40.329 67.3803 68.7128 84.3271 52.2509 77.9423C50.5322 77.5615 48.4579 77.4269 47.5947 75.8061ZM70.6796 86.0891C69.9911 78.9944 72.2128 87.2626 70.6796 86.0891V86.0891ZM88.2021 95.5374C89.5556 91.4973 88.3056 98.2112 88.2021 95.5374V95.5374ZM48.7128 72.5915C53.0302 71.8136 66.6054 78.9616 54.1406 74.6309C52.7558 73.3425 49.7988 73.9276 48.7128 72.5907V72.5915ZM85.7939 88.1219C86.2558 80.8672 88.3759 83.7912 85.8134 89.1633L85.7939 88.1211V88.1219ZM51.9247 70.0647C53.6865 67.8957 47.249 60.2602 52.8495 67.327C55.2714 68.942 59.8544 70.0319 55.8066 70.713C62.1728 75.4311 54.2558 71.9908 51.9247 70.0647ZM83.9609 85.8577C85.1757 77.5935 85.0351 90.698 83.9609 85.8577V85.8577ZM48.246 62.4333C49.5937 61.9491 48.9609 63.9401 48.246 62.4333V62.4333ZM56.6054 66.6138C58.7558 62.819 60.5703 70.8419 56.6054 66.6138V66.6138ZM80.1747 77.6304C80.1552 76.1762 80.621 79.7502 80.1747 77.6304V77.6304ZM78.8076 75.0929C75.538 68.3093 81.8544 78.6825 78.8076 75.0929V75.0929ZM76.8017 70.6433C76.2548 67.8415 78.6669 74.1639 76.8017 70.6433V70.6433ZM80.0712 66.1788C77.8242 62.856 82.9081 51.5283 83.4765 58.5532C81.1064 64.027 82.7929 67.0865 84.4394 59.7448C87.4931 53.9706 83.7822 71.1488 80.0712 66.1788ZM83.4306 49.3338C84.4091 48.3244 83.6484 50.5508 83.4306 49.3338V49.3338ZM77.8193 142.242C76.4902 141.265 77.9902 142.86 77.8193 142.242V142.242ZM89.3769 147.153C95.8066 148.543 95.7753 146.315 89.9628 145.649C86.8408 143.208 76.9745 140.616 85.8066 145.349C86.3886 146.595 88.2343 146.562 89.3769 147.153ZM66.5546 134.412C70.0917 136.635 79.8935 140.701 71.5986 135.261C74.3954 132.528 66.247 131.075 68.9492 129.246C62.0712 125.708 63.5195 126.024 68.3427 126.138C60.079 123.03 69.5361 123.266 69.0898 121.673C65.9033 121.146 53.2587 116.95 60.6982 122.016C53.1376 118.78 58.8964 123.224 56.6113 122.757C48.8769 120.986 63.496 127.705 55.3847 126.036C59.8173 128.987 67.3203 133.603 57.2558 129.159C55.9345 130.763 64.4599 133.195 66.5536 134.412H66.5546ZM78.6415 140.251C93.3359 144.228 71.4316 135.383 78.6415 140.251V140.251ZM140.52 171.751C140.712 169.299 138.515 173.844 140.52 171.751V171.751ZM146.881 174C150.271 171.242 147.021 178.4 152.5 173.325C152.557 169.691 152.334 167.545 146.204 171.961C144.511 172.75 143.759 176.093 146.881 174.001V174ZM45.9218 120.719C44.8798 117.279 38.622 117.293 45.9218 120.719V120.719ZM52.7089 124.458C50.1865 120.944 43.7109 121.276 52.7089 124.458V124.458ZM91.3495 144.04C95.1249 146.858 108.675 146.106 95.9296 144.389C94.0449 142.044 83.9492 142.608 91.3495 144.04ZM144.46 171.609C150.265 167.513 138.835 173.433 144.46 171.609V171.609ZM156.536 178.578C156.573 177.264 154.033 179.153 156.536 178.578V178.578ZM156.556 176.738C162.985 171.018 150.329 177.076 156.556 176.738V176.738ZM29.2158 108.965C23.7372 102.397 25.8124 99.4446 20.5253 94.0783C19.5214 89.9733 11.458 80.6677 16.3554 90.5256C20.8378 96.2949 22.166 105.224 29.2167 108.965H29.2158ZM154.537 174.918C166.371 168.494 149.685 172.122 154.537 174.918V174.918ZM163.567 177.891C169.493 173.618 159.818 176.999 163.567 177.891V177.891ZM43.9091 113.456C45.6025 111.336 39.5292 113.183 43.9091 113.456V113.456ZM161.683 175.862C167.417 172.756 160.361 173.233 160.643 176.146L161.683 175.862ZM83.8525 134.637C83.6552 132.534 80.8202 134.815 83.8525 134.637V134.637ZM88.6611 136.962C87.1288 134.364 86.3115 137.369 88.6611 136.962V136.962ZM170.885 177.961C178.234 173.506 166.435 177.107 169.346 178.809L170.885 177.961ZM168.069 176.818C174.059 172.605 161.753 178.685 168.069 176.818V176.818ZM182.448 184.861C186.467 182.602 177.564 184.132 182.448 184.861V184.861ZM47.5947 111.927C52.9775 112.941 69.1201 123.073 59.5995 112.63C54.7216 111.417 57.6464 101.398 52.6718 103.169C56.0117 107.859 55.416 109.849 48.4042 106.899C39.5996 103.281 43.456 108.686 45.1816 110.178C42.83 110.629 48.2841 111.89 47.5937 111.926L47.5947 111.927ZM23.0537 95.6408C24.0175 92.2859 14.1708 77.2012 18.4052 88.0792C19.9306 90.3598 19.7724 94.679 23.0537 95.6408V95.6408ZM68.0986 118.978C65.3212 117.031 67.9648 118.699 68.0986 118.978V118.978ZM74.9247 120.316C74.9247 116.762 67.3779 118.872 74.9247 120.316V120.316ZM134.122 151.671C132.992 149.244 129.659 151.617 134.122 151.671V151.671ZM136.964 153.414C136.541 152.057 135.321 153.678 136.964 153.414V153.414ZM160.425 165.838C162.68 164.438 157.608 165.656 160.425 165.838V165.838ZM35.3085 98.2703C41.7636 96.171 28.3915 96.7725 35.3085 98.2703V98.2703ZM128.91 147.822C128.835 144.313 124.792 148.698 128.91 147.822V147.822ZM32.7597 93.2732C36.9042 92.0997 28.9218 92.5018 32.7597 93.2732V93.2732ZM44.791 98.1726C44.7197 97.0196 43.5204 98.6133 44.791 98.1726V98.1726ZM191.568 173.812C196.9 172.905 209.053 176.093 211.013 172.627C204.538 172.492 188.618 168.784 187.864 173.506L189.282 173.695L191.569 173.812H191.568ZM48.6152 98.9834C48.7128 95.425 45.3144 98.8497 48.6152 98.9834V98.9834ZM16.9824 80.5389C15.5458 73.7602 11.5156 79.5131 16.9824 80.5389V80.5389ZM24.5234 82.1326C24.6201 79.9538 17.6191 80.1737 24.5234 82.1326V82.1326ZM28.8339 83.9143C27.5888 83.0657 27.8632 84.9812 28.8339 83.9143V83.9143ZM55.9667 98.5378C57.2451 97.5497 52.9404 97.8082 55.9667 98.5378V98.5378ZM25.9667 79.9004C25.2333 74.7811 17.2246 79.1331 25.9667 79.9004V79.9004ZM10.4931 71.4639C10.2753 69.1029 8.98529 72.3544 10.4931 71.4639V71.4639ZM12.7978 70.0056C12.4218 67.203 10.8183 70.3585 12.7978 70.0056V70.0056ZM25.5078 76.3797C30.8847 74.6087 15.7167 72.7089 24.4091 76.0474L25.5078 76.3797ZM195.65 164.7C199.092 162.049 191.282 163.879 195.65 164.7V164.7ZM216.206 173.651C217.586 170.228 212.731 174.103 216.206 173.651V173.651ZM26.8066 70.7828C27.3759 67.4673 22.5419 71.4426 26.8066 70.7828V70.7828ZM8.71772 60.5983C7.74701 55.9188 7.8808 47.7023 17.1728 50.477C4.77045 52.5484 25.7617 63.4353 23.1113 54.8388C28.3281 55.0547 33.3163 52.248 30.5761 56.5023C40.8574 55.5528 47.9785 48.0618 57.9072 49.1139C65.6396 48.2505 74.0947 47.6005 82.4286 44.9818C89.2802 44.5682 95.8759 38.3697 92.123 34.6939C82.7802 34.0291 72.996 35.0107 62.6708 36.739C51.2285 38.7349 40.8329 42.5337 29.2861 44.166C18.0273 45.4381 31.5468 47.6646 28.3212 48.1635C22.4521 49.8754 35.3271 51.0293 27.5615 52.8372C22.7665 52.0707 17.7724 50.6863 19.8222 46.436C9.04291 47.6161 -0.43365 51.3723 8.08588 60.5917L8.71869 60.5966L8.71772 60.5983ZM34.7021 49.4782C37.2245 41.6548 48.2392 55.9188 38.8398 50.5197C37.7216 49.8106 35.8691 49.2361 34.7021 49.4782ZM35.1923 45.6835C38.8398 43.4036 37.1279 46.967 35.1923 45.6835V45.6835ZM39.8222 45.7491C40.1562 42.148 50.4306 47.6539 41.5156 47.0425L39.8222 45.7483V45.7491ZM46.1572 43.608C48.4755 41.3315 46.829 45.6252 46.1572 43.608V43.608ZM47.7802 42.6962C51.6367 38.8054 69.5995 40.2104 56.4511 42.3138C52.9257 40.0816 50.2255 43.6285 47.7802 42.6962ZM71.2275 39.6581C70.6474 29.0263 82.8818 43.4307 71.2275 39.6581V39.6581ZM77.8827 39.6253C80.3144 34.2704 87.3261 37.4743 79.0126 38.5469C79.1904 39.1214 78.7636 41.3167 77.8827 39.6253ZM24.1845 68.0352C31.4501 64.2946 16.4697 64.7894 24.1845 68.0352V68.0352ZM29.5605 69.2859C32.1093 67.011 24.0175 68.3626 29.5605 69.2859V69.2859ZM13.7246 59.8466C17.8749 57.163 8.80756 58.8273 13.7246 59.8466V59.8466ZM228.338 172.675C228.459 169.562 225.164 174.075 228.338 172.675V172.675ZM206.53 160.165C207.149 156.587 203.727 160.477 206.53 160.165V160.165ZM234.334 173.883C240.14 173.899 251.926 172.363 239.295 172.368C237.309 172.627 227.744 172.574 234.334 173.883ZM34.2871 67.0898C38.9872 66.8214 41.6367 62.737 33.373 62.9684C20.5703 61.858 44.6689 66.6556 31.7324 65.2818C29.996 66.2478 34.1835 67.3581 34.2871 67.0898ZM38.4247 68.8509C37.9326 66.3175 36.9677 70.1968 38.4247 68.8509V68.8509ZM43.3349 57.849C45.372 55.7235 40.5126 57.2803 43.3349 57.849V57.849ZM27.7021 35.8962C36.0937 33.5031 47.5624 30.8088 51.5224 37.0779C47.4921 33.0049 49.8945 28.9902 53.7001 34.9524C59.0829 40.9794 61.7763 32.2105 58.2773 30.1868C62.2695 34.3508 66.8027 36.3213 60.9462 30.451C67.3134 24.0162 48.207 31.293 43.8652 31.2175C41.7773 32.0054 22.2939 35.3923 27.7031 35.8962H27.7021ZM32.6191 27.9874C37.4033 24.9558 49.165 29.7953 41.6171 24.9706C40.8769 24.424 25.0917 28.6308 32.6191 27.9874ZM50.0595 28.593C55.6533 28.7112 47.6464 22.2714 54.3124 25.1905C53.2206 22.1861 46.5478 21.6223 43.2851 20.4208C41.4394 23.1684 47.038 28.6308 50.0595 28.593V28.593ZM35.6777 15.2892C37.6132 13.084 32.2812 16.411 35.6777 15.2892V15.2892ZM42.8066 16.7212C51.8281 15.7184 40.5058 13.4591 40.9843 16.6416L42.8056 16.7212H42.8066ZM29.496 7.97456C23.1415 1.0038 41.4443 9.14483 34.9872 1.8458C29.5537 -1.78648 24.3369 5.94094 29.496 7.97456V7.97456ZM111.01 44.8694C113.924 40.5321 98.9863 39.0196 109.05 43.3331C109.976 43.5916 109.767 45.1689 111.01 44.8694Z" fill="black"/>
<path d="M51.8633 206.394C51.2187 208.533 50.8193 212.122 50.6699 217.159C50.6699 218.149 50.1396 218.644 49.0762 218.644C48.0127 218.644 47.2725 218.212 46.8535 217.351C45.7148 215.022 44.6367 213.398 43.6074 212.47C42.3945 211.387 40.7812 210.732 38.7685 210.509C36.6055 210.222 31.2168 210.078 22.6016 210.078C20.6289 210.078 19.3369 210.254 18.7314 210.607C18.3516 210.828 18.1621 211.307 18.1621 212.042V233.715C18.1621 234.449 18.7119 234.798 19.8105 234.768C23.1904 234.735 28.0859 234.541 34.498 234.193C35.7519 234.064 36.5977 233.722 37.0332 233.163C37.4727 232.605 37.8994 231.164 38.3144 228.834C38.5781 227.557 39.4726 227.063 40.9902 227.352C42.2793 227.575 42.834 228.07 42.6435 228.834C41.5791 233.173 41.2353 238.819 41.6152 245.772C41.6553 246.599 41.0293 247.048 39.7373 247.112C38.6728 247.208 38.0088 246.728 37.7451 245.675C36.7607 241.689 34.9258 239.559 32.2529 239.286C29.5771 239.017 25.2187 238.881 19.1865 238.881C18.5029 238.881 18.1621 239.087 18.1621 239.502V261.033C18.1621 262.628 18.8623 263.714 20.2656 264.286C21.3691 264.764 23.7402 265.196 27.3818 265.578C29.2441 265.737 30.0576 266.425 29.833 267.635C29.6035 268.688 27.9355 269.103 24.8203 268.88C15.8262 268.272 8.40429 268.305 2.56152 268.977C0.927728 269.166 0.114251 268.608 0.114251 267.302C0.114251 266.471 0.927728 265.993 2.56152 265.866C6.28124 265.514 8.13964 262.771 8.13964 257.637V216.68C8.13964 214.577 7.69238 212.959 6.80273 211.825C5.90917 210.693 4.24804 209.663 1.82226 208.739C0.302728 208.164 -0.265632 207.384 0.113274 206.394C0.302728 205.789 0.607415 205.453 1.02245 205.39C1.40234 205.294 2.41015 205.358 4.03906 205.582C6.43163 205.901 12.0693 206.061 20.9492 206.061C31.4268 206.061 40.4766 205.868 48.1074 205.486C50.6494 205.357 51.9228 205.533 51.9228 206.012C51.9228 206.141 51.9033 206.267 51.8633 206.394V206.394Z" fill="black"/>
<path d="M88.7842 267.129C88.7842 268.406 87.9297 268.964 86.2227 268.804C80.9883 268.388 74.4961 268.451 66.7539 268.993C65.1963 269.123 64.2402 269.089 63.877 268.9C63.5156 268.708 63.3379 268.182 63.3379 267.318C63.3379 266.555 64.3701 265.91 66.4385 265.381C68.5098 264.857 69.541 263.285 69.541 260.671V217.371C69.541 214.786 69.0947 212.888 68.2051 211.675C67.3115 210.463 65.7461 209.523 63.5078 208.855C62.3301 208.502 61.7402 208.008 61.7402 207.369C61.7402 206.412 62.5947 205.695 64.3027 205.217C66.8848 204.515 69.5615 203.432 72.333 201.963C74.6104 200.814 76.0537 200.242 76.6582 200.242C78.0615 200.242 78.7666 201.053 78.7666 202.681C78.7666 202.555 78.6904 204.15 78.5361 207.465C78.4258 210.622 78.3867 213.732 78.4258 216.796L78.6504 259.52C78.6504 261.467 79.2207 262.879 80.3594 263.756C81.498 264.633 83.4551 265.215 86.2227 265.501C87.9297 265.66 88.7842 266.202 88.7842 267.129V267.129Z" fill="black"/>
<path d="M140.277 264.308C140.277 264.979 138.826 265.99 135.924 267.344C133.019 268.701 130.693 269.379 128.949 269.379C127.467 269.379 126.159 268.774 125.021 267.561C123.882 266.349 123.082 265.744 122.628 265.744C122.287 265.744 120.484 266.398 117.218 267.704C113.957 269.013 110.672 269.668 107.37 269.668C104.259 269.668 101.657 268.9 99.5703 267.372C97.293 265.68 96.1543 263.384 96.1543 260.48C96.1543 254.962 103.67 251.008 118.701 248.616C121.279 248.201 122.592 247.323 122.627 245.984L122.743 242.921C122.972 237.691 120.22 235.077 114.487 235.077C112.854 235.077 111.309 236.303 109.845 238.758C108.387 241.217 106.287 242.539 103.555 242.732C100.443 242.984 98.8857 241.885 98.8857 239.429C98.8857 237.897 101.202 236.114 105.832 234.07C110.691 231.934 115.361 230.864 119.84 230.864C127.543 230.864 131.357 233.944 131.282 240.1L131.053 259.81C131.018 261.884 132.062 262.919 134.185 262.919C134.604 262.919 135.401 262.841 136.576 262.681C137.755 262.521 138.438 262.441 138.629 262.441C139.728 262.441 140.277 263.065 140.277 264.308V264.308ZM122.743 253.401C122.782 252.603 122.561 252.074 122.086 251.822C121.611 251.567 120.865 251.516 119.84 251.676C110.691 253.048 106.117 255.553 106.117 259.189C106.117 262.857 108.489 264.69 113.233 264.69C115.132 264.69 117.089 264.388 119.097 263.783C121.453 263.079 122.628 262.236 122.628 261.245L122.743 253.4V253.401Z" fill="black"/>
<path d="M182.605 258.804C182.605 262.185 181.055 264.874 177.964 266.867C174.871 268.861 170.649 269.857 165.296 269.857C161.729 269.857 158.159 269.539 154.593 268.9C151.517 268.326 149.733 267.801 149.24 267.322C148.936 266.873 148.785 264.691 148.785 260.767C148.785 259.076 149.24 258.198 150.152 258.136C151.062 258.039 151.842 258.455 152.486 259.378C155.332 263.558 159.926 265.648 166.265 265.648C171.613 265.648 174.29 264.083 174.29 260.956C174.29 259.587 173.685 258.438 172.468 257.514C171.139 256.461 168.562 255.232 164.727 253.829C159.184 251.757 155.482 249.939 153.624 248.374C151.611 246.716 150.606 244.484 150.606 241.675C150.606 238.229 152.182 235.552 155.332 233.639C158.254 231.787 162.164 230.864 167.059 230.864C170.135 230.864 172.942 231.069 175.488 231.485C178.221 231.901 179.644 232.409 179.758 233.017C180.059 234.801 180.687 237.386 181.637 240.769C181.751 241.181 181.217 241.516 180.043 241.772C178.789 241.995 177.955 241.818 177.536 241.246C174.539 237.13 170.744 235.073 166.149 235.073C160.95 235.073 158.35 236.477 158.35 239.283C158.35 240.847 159.053 242.09 160.456 243.014C161.71 243.812 164.65 245.057 169.281 246.749C174.14 248.503 177.441 250.082 179.189 251.484C181.467 253.301 182.605 255.743 182.605 258.804Z" fill="black"/>
<path d="M249.585 267.177C249.585 268.293 248.691 268.884 246.908 268.947C244.251 268.98 240.775 269.139 236.49 269.426C234.363 269.778 232.845 269.555 231.936 268.757C225.937 263.335 220.85 257.657 216.674 251.723C216.334 251.214 215.898 250.959 215.365 250.959C214.721 250.959 213.603 251.437 212.009 252.395C210.222 253.222 209.332 254.404 209.332 255.932C209.332 257.019 209.367 258.58 209.446 260.625C209.522 262.664 210.127 264.003 211.266 264.641C212.063 265.09 213.907 265.439 216.788 265.695C218.572 265.887 219.466 266.445 219.466 267.369C219.466 268.103 219.323 268.559 219.038 268.731C218.755 268.907 218.003 268.947 216.788 268.851C212.993 268.565 206.58 268.725 197.547 269.33C195.27 269.489 194.035 269.249 193.846 268.611C193.771 268.39 193.73 268.07 193.73 267.655C193.73 266.668 194.89 265.916 197.207 265.409C199.294 264.959 200.337 262.903 200.337 259.235V217.418C200.337 214.803 200.034 212.986 199.424 211.966C198.59 210.657 196.842 209.636 194.186 208.902C192.936 208.553 192.308 208.058 192.308 207.42C192.308 206.493 193.201 205.775 194.983 205.267C197.852 204.461 200.588 203.351 203.124 201.965C205.213 200.818 206.505 200.243 206.995 200.243C208.554 200.243 209.332 201.07 209.332 202.732C209.332 202.507 209.312 204.088 209.272 207.468C209.232 210.594 209.213 213.72 209.218 216.846L209.332 246.796C209.332 247.626 209.597 248.038 210.127 248.038C210.696 248.038 211.57 247.626 212.748 246.796C215.898 244.722 219.77 242.011 224.36 238.662C225.273 237.865 225.728 237.227 225.728 236.748C225.728 235.888 224.19 235.279 221.118 234.931C219.79 234.801 219.161 234.18 219.235 233.063C219.351 231.947 220.016 231.469 221.229 231.628C223.965 231.948 227.95 232.124 233.185 232.156C236.83 232.186 240.455 232.203 244.062 232.203C245.235 232.236 245.825 232.825 245.825 233.974C245.825 235.058 244.896 235.648 243.037 235.745C240.111 235.838 237.359 236.396 234.782 237.419C231.176 238.788 227.321 241.197 223.222 244.643C222.921 244.835 222.767 245.074 222.767 245.36C222.767 245.806 223.411 246.876 224.704 248.567C229.448 254.627 233.928 259.202 238.139 262.298C240.835 264.243 243.357 265.216 245.71 265.216C247.458 265.216 248.54 265.319 248.955 265.527C249.375 265.735 249.585 266.286 249.585 267.177V267.177Z" fill="black"/>
</g>
<defs>
<clipPath id="clip0">
<rect width="250" height="270" fill="white"/>
</clipPath>
</defs>
</svg>
