<svg width="250" height="270" viewBox="0 0 250 270" fill="none" xmlns="http://www.w3.org/2000/svg">
<path d="M249.031 161.68C247.532 156.925 243.605 153.613 238.527 152.819C236.132 152.444 233.39 152.604 230.145 153.305C224.489 154.527 220.293 154.992 217.23 155.082C228.79 134.643 238.189 111.335 243.6 89.3943C252.35 53.9169 247.674 37.7548 242.211 30.4443C227.751 11.0943 206.654 0.699304 181.203 0.381236C167.626 0.207372 155.707 3.01476 149.489 5.03362C143.7 3.96385 137.475 3.36658 130.944 3.25612C118.701 3.05158 107.883 5.84669 98.6403 11.5914C93.5231 9.77908 85.3102 7.2243 75.8258 5.59408C53.5192 1.75885 35.5406 4.74726 22.3903 14.4765C6.46643 26.2562 -0.915406 46.7231 0.449828 75.3083C0.883422 84.384 5.73108 111.998 13.3639 138.186C17.7506 153.238 22.4283 165.738 27.2672 175.341C34.1295 188.959 41.4723 196.978 49.7155 199.858C54.3356 201.47 62.7301 202.599 71.5592 194.898C72.6783 196.317 74.1715 197.728 76.153 199.038C78.6696 200.7 81.7467 202.058 84.82 202.863C95.8951 205.762 106.269 205.037 115.12 200.973C115.174 202.621 115.216 204.196 115.252 205.557C115.31 207.763 115.369 209.926 115.446 211.949C115.97 225.627 116.859 236.262 119.492 243.703C119.636 244.113 119.831 244.736 120.036 245.398C121.349 249.61 123.546 256.66 129.133 262.182C134.92 267.902 141.919 269.656 148.329 269.656C151.544 269.656 154.611 269.214 157.301 268.611C166.891 266.458 177.783 263.179 185.662 251.43C193.111 240.323 196.732 223.595 197.387 197.236C197.472 196.49 197.55 195.778 197.626 195.1L197.782 193.707L199.537 193.869L199.989 193.901C209.756 194.367 221.7 192.198 229.035 188.63C234.831 185.813 253.404 175.544 249.031 161.68" fill="black"/>
<path d="M232.331 164.374C203.288 170.649 201.291 160.351 201.291 160.351C231.955 112.699 244.774 52.2116 233.713 37.4076C203.533 -2.97474 151.292 16.1237 150.42 16.6187L150.139 16.6718C144.401 15.4241 137.98 14.6816 130.762 14.5579C117.622 14.3329 107.653 18.1661 100.089 24.1736C100.089 24.1736 6.89521 -16.0339 11.2302 74.7413C12.152 94.0524 37.6599 220.861 68.0837 182.559C79.2038 168.553 89.9489 156.711 89.9489 156.711C95.2849 160.423 101.674 162.317 108.371 161.637L108.891 161.175C108.729 162.914 108.803 164.614 109.099 166.628C101.261 175.799 103.565 177.409 87.8972 180.787C72.0427 184.209 81.3562 190.3 87.4372 191.894C94.8093 193.824 111.864 196.558 123.387 179.664L122.928 181.592C125.999 184.168 128.155 198.347 127.794 211.202C127.432 224.055 127.191 232.88 129.61 239.774C132.031 246.667 134.442 262.177 155.04 257.555C172.25 253.692 181.169 243.683 182.41 226.985C183.29 215.116 185.283 216.871 185.408 206.258L187.007 201.234C188.849 185.144 187.3 179.952 197.902 182.367L200.48 182.604C208.283 182.975 218.498 181.289 224.493 178.371C237.401 172.098 245.057 161.622 232.329 164.374H232.331" fill="#336791"/>
<path d="M105.544 83.3777C102.926 82.9962 100.556 83.349 99.357 84.3002C98.6832 84.8351 98.4742 85.4548 98.4175 85.8813C98.2671 87.0114 99.023 88.2612 99.4878 88.9055C100.802 90.7301 102.722 91.9839 104.623 92.2601C104.898 92.301 105.172 92.3194 105.445 92.3194C108.614 92.3194 111.496 89.7349 111.75 87.8276C112.067 85.4385 108.755 83.8461 105.544 83.3787" fill="white"/>
<path d="M192.247 83.4545C191.997 81.5819 188.815 81.048 185.796 81.4878C182.78 81.9276 179.856 83.3532 180.1 85.2299C180.296 86.6894 182.812 89.1807 185.791 89.1807C186.043 89.1807 186.297 89.1634 186.552 89.1255C188.541 88.8371 190 87.5147 190.693 86.7528C191.748 85.591 192.359 84.2962 192.247 83.4545" fill="white"/>
<path d="M241.994 163.662C240.887 160.155 237.322 159.027 231.4 160.307C213.817 164.108 207.52 161.475 205.453 159.881C219.12 138.076 230.363 111.719 236.429 87.1273C239.302 75.4784 240.889 64.66 241.018 55.842C241.162 46.164 239.588 39.0519 236.342 34.7074C223.254 17.1932 204.045 7.79841 180.793 7.54068C164.808 7.3525 151.302 11.6367 148.684 12.8415C143.17 11.4056 137.159 10.524 130.615 10.4115C118.615 10.208 108.242 13.2168 99.6542 19.3501C95.9238 17.8958 86.2831 14.4298 74.4931 12.4406C54.1103 9.0042 37.913 11.6081 26.3544 20.1836C12.5624 30.417 6.19525 48.7095 7.42865 74.5518C7.84369 83.246 12.5742 109.992 20.039 135.607C29.8652 169.32 40.5468 188.405 51.7851 192.331C53.1005 192.79 54.6171 193.111 56.29 193.111C60.3896 193.111 65.416 191.176 70.6455 184.592C77.0239 176.579 83.6221 168.76 90.4316 161.145C94.8495 163.628 99.7031 165.015 104.667 165.154C104.677 165.29 104.689 165.426 104.701 165.561C103.847 166.628 103.01 167.711 102.191 168.808C98.7519 173.381 98.0361 174.333 86.9648 176.72C83.8154 177.401 75.4511 179.206 75.3281 185.347C75.1953 192.056 85.2158 194.874 86.3574 195.172C90.3359 196.215 94.1689 196.73 97.8242 196.73C106.714 196.73 114.537 193.67 120.789 187.749C120.597 211.667 121.549 235.235 124.291 242.415C126.537 248.294 132.023 262.66 149.353 262.659C151.896 262.659 154.695 262.349 157.774 261.658C175.861 257.597 183.716 249.225 186.754 230.768C188.38 220.904 191.17 197.35 192.482 184.715C195.252 185.62 198.817 186.034 202.672 186.033C210.711 186.033 219.987 184.244 225.805 181.417C232.34 178.238 244.133 170.439 241.994 163.662V163.662ZM198.922 78.2848C198.862 82.0146 198.372 85.4009 197.852 88.9354C197.293 92.7369 196.715 96.6673 196.569 101.438C196.426 106.081 196.979 110.909 197.515 115.577C198.597 125.007 199.707 134.715 195.409 144.294C194.695 142.969 194.059 141.6 193.505 140.194C192.971 138.837 191.81 136.659 190.204 133.644C183.955 121.907 169.321 94.4224 176.812 83.2072C179.044 79.869 184.707 76.4367 198.922 78.2848V78.2848ZM181.691 15.0935C202.525 15.5752 219.006 23.7376 230.674 39.3526C239.623 51.3298 229.769 105.828 201.24 152.844C200.953 152.462 200.665 152.081 200.375 151.701L200.014 151.229C207.386 138.478 205.944 125.863 204.661 114.679C204.134 110.089 203.636 105.753 203.763 101.681C203.893 97.3648 204.438 93.6625 204.966 90.0829C205.613 85.6719 206.272 81.1075 206.091 75.7269C206.227 75.1624 206.281 74.4956 206.21 73.704C205.746 68.5443 200.121 53.1022 188.656 39.1256C182.385 31.4807 173.239 22.9256 160.752 17.1553C166.123 15.9894 173.468 14.9023 181.691 15.0935V15.0935ZM65.1113 179.773C59.3496 187.028 55.371 185.637 54.0624 185.181C45.5371 182.203 35.6445 163.332 26.9228 133.407C19.3759 107.513 14.9658 81.4757 14.6162 74.1744C13.5146 51.0833 18.8593 34.9907 30.5029 26.3425C49.4521 12.2698 80.6064 20.693 93.1249 24.9649C92.9453 25.151 92.7578 25.3249 92.58 25.5141C72.0371 47.2409 72.5244 84.3618 72.5751 86.6312C72.5732 87.5067 72.6435 88.7462 72.7392 90.4511C73.0927 96.6949 73.7509 108.315 71.9931 121.475C70.3603 133.703 73.9599 145.672 81.8671 154.313C82.6786 155.198 83.5316 156.041 84.4228 156.837C80.9033 160.785 73.2539 169.515 65.1113 179.773V179.773ZM87.0634 149.098C80.6904 142.134 77.7958 132.446 79.121 122.518C80.9765 108.617 80.2919 96.5098 79.9238 90.0052C79.872 89.095 79.8261 88.2973 79.7997 87.6683C82.8007 84.8814 96.7079 77.0779 106.626 79.4578C111.151 80.5429 113.909 83.7707 115.056 89.322C120.989 118.064 115.841 130.043 111.704 139.67C110.852 141.653 110.046 143.528 109.358 145.467L108.825 146.966C107.476 150.756 106.22 154.281 105.441 157.627C98.666 157.606 92.0751 154.575 87.0634 149.097V149.098ZM88.1035 187.86C86.1249 187.342 84.3456 186.443 83.3017 185.698C84.1738 185.268 85.7255 184.683 88.4169 184.102C101.441 181.295 103.453 179.313 107.846 173.472C108.852 172.132 109.994 170.615 111.575 168.765L111.577 168.763C113.932 166.002 115.009 166.47 116.962 167.319C118.545 168.005 120.087 170.083 120.712 172.37C121.008 173.45 121.34 175.499 120.253 177.095C111.077 190.55 97.706 190.377 88.1035 187.86V187.86ZM156.267 254.288C140.333 257.863 134.691 249.349 130.974 239.616C128.574 233.332 127.394 204.997 128.231 173.704C128.242 173.288 128.185 172.886 128.076 172.508C127.978 171.76 127.829 171.021 127.631 170.296C126.387 165.743 123.354 161.935 119.717 160.356C118.271 159.729 115.619 158.578 112.432 159.432C113.111 156.499 114.29 153.186 115.568 149.6L116.104 148.091C116.708 146.39 117.466 144.628 118.267 142.763C122.596 132.691 128.524 118.895 122.09 87.7296C119.68 76.0562 111.631 70.3556 99.4296 71.68C92.1152 72.4726 85.4228 75.5633 82.0849 77.3357C81.3671 77.7161 80.7109 78.0843 80.0976 78.4423C81.0292 66.6809 84.5488 44.7004 97.7148 30.7934C106.005 22.0389 117.045 17.7148 130.496 17.948C157 18.402 173.996 32.6466 183.588 44.5174C191.853 54.7457 196.329 65.0497 198.115 70.6072C184.683 69.1764 175.547 71.9531 170.916 78.8872C160.841 93.9703 176.428 123.245 183.919 137.315C185.293 139.893 186.478 142.121 186.852 143.068C189.291 149.26 192.449 153.394 194.755 156.411C195.462 157.335 196.147 158.232 196.669 159.016C192.601 160.244 185.293 163.082 185.959 177.268C185.422 184.387 181.602 217.713 179.662 229.488C177.101 245.044 171.635 250.837 156.267 254.289V254.288ZM222.774 174.581C218.614 176.603 211.652 178.119 205.039 178.446C197.734 178.804 194.016 177.589 193.141 176.841C192.73 168 195.872 167.077 199.197 166.099C199.72 165.946 200.229 165.795 200.722 165.615C201.027 165.876 201.362 166.135 201.729 166.389C207.601 170.447 218.072 170.885 232.856 167.689L233.018 167.655C231.024 169.607 227.612 172.227 222.774 174.581Z" fill="white"/>
</svg>
