<svg width="250" height="270" viewBox="0 0 250 270" fill="none" xmlns="http://www.w3.org/2000/svg">
<path d="M0 0H250V270H0V0Z" fill="#F7DF1E"/>
<path d="M65.7357 225.632L84.8666 213.127C88.558 220.195 91.9154 226.175 99.9691 226.175C107.689 226.175 112.557 222.914 112.557 210.228V123.957H136.05V210.587C136.05 236.866 121.786 248.829 100.976 248.829C82.182 248.829 71.2728 238.316 65.7347 225.63" fill="black"/>
<path d="M148.809 222.912L167.937 210.951C172.974 219.832 179.519 226.356 191.097 226.356C200.832 226.356 207.039 221.1 207.039 213.85C207.039 205.151 200.662 202.069 189.922 196.996L184.05 194.275C167.1 186.484 155.856 176.696 155.856 156.035C155.856 137.004 169.281 122.505 190.259 122.505C205.194 122.505 215.935 128.124 223.653 142.804L205.36 155.492C201.332 147.699 196.971 144.618 190.258 144.618C183.377 144.618 179.014 149.33 179.014 155.492C179.014 163.104 183.377 166.187 193.445 170.899L199.318 173.617C219.289 182.861 230.532 192.285 230.532 213.488C230.532 236.326 213.919 248.831 191.6 248.831C169.784 248.831 155.688 237.594 148.808 222.913" fill="black"/>
</svg>
