<svg width="250" height="270" viewBox="0 0 250 270" fill="none" xmlns="http://www.w3.org/2000/svg">
<g clip-path="url(#clip0)">
<path d="M173.224 187.819C182.449 186.737 189.448 177.725 189.13 166.91C188.812 156.095 180.858 147.443 171.314 147.443H170.679C160.815 147.804 153.181 157.177 153.499 168.352C153.817 173.759 155.726 178.446 158.589 181.69C147.772 205.844 131.229 223.508 106.415 238.288C89.5537 248.382 72.0566 251.987 54.5596 249.465C40.2432 247.301 29.1084 240.092 22.1084 228.194C11.9287 210.53 10.9746 191.423 19.5644 172.318C25.6094 158.618 35.1523 148.524 41.1973 143.477C39.9248 138.791 38.0156 130.86 37.0615 125.093C-9.06837 162.945 -4.29591 214.135 9.70214 238.288C20.2002 256.314 41.5156 267.489 65.0576 267.489C71.4199 267.489 77.7822 266.768 84.1455 264.966C124.867 255.953 155.727 228.555 173.224 187.819V187.819ZM229.216 143.118C205.037 111.033 169.406 93.3691 128.685 93.3691H123.595C120.731 86.8802 114.687 82.5536 108.006 82.5536H107.369C97.5078 82.9143 89.873 92.2869 90.1904 103.463C90.5088 114.277 98.4619 122.93 108.006 122.93H108.642C115.641 122.569 121.686 117.522 124.23 110.672H129.957C154.136 110.672 177.041 118.603 197.721 134.105C213.627 146.001 225.08 161.503 231.442 180.248C236.851 195.389 236.532 210.17 230.806 222.788C221.898 241.893 206.946 252.348 187.222 252.348C174.496 252.348 162.407 248.022 156.044 244.777C152.545 248.382 146.182 254.15 141.728 257.756C155.408 264.965 169.406 268.931 182.768 268.931C213.309 268.931 235.896 249.824 244.486 230.718C253.712 209.809 253.075 173.759 229.216 143.118V143.118ZM67.6025 193.946C67.9209 204.762 75.874 213.413 85.418 213.413H86.0547C95.917 213.053 103.552 203.68 103.233 192.504C102.916 181.689 94.9619 173.038 85.418 173.038H84.7822C84.1455 173.038 83.1904 173.038 82.5557 173.398C69.5117 148.884 64.1035 122.208 66.0127 93.368C67.2842 71.7381 73.6474 52.9919 84.7822 37.4902C94.0078 24.1517 111.823 17.6629 123.913 17.3032C157.635 16.5818 171.95 64.167 172.905 83.274C177.041 84.3551 184.04 86.8791 188.812 88.6817C184.994 30.282 153.181 0 122.641 0C94.0078 0 67.6025 23.4325 57.1035 58.04C42.4697 104.183 52.0137 148.524 69.8291 183.493C68.2392 186.016 67.2842 189.982 67.6025 193.947V193.946Z" fill="#764ABC"/>
</g>
<defs>
<clipPath id="clip0">
<rect width="250" height="270" fill="white"/>
</clipPath>
</defs>
</svg>
