<svg width="250" height="270" viewBox="0 0 250 270" fill="none" xmlns="http://www.w3.org/2000/svg">
<path d="M0 135V270H250V0H0V135Z" fill="#007ACC"/>
<path d="M55.2853 135.896L55.2062 146.953H87.7452V246.811H110.763V146.953H143.302V136.111C143.302 130.109 143.183 125.095 143.025 124.967C142.905 124.796 123.104 124.709 99.0958 124.753L55.4054 124.881L55.2863 135.895L55.2853 135.896Z" fill="white"/>
<path d="M201.726 124.567C208.075 126.282 212.917 129.324 217.361 134.296C219.663 136.953 223.075 141.797 223.353 142.954C223.431 143.296 212.559 151.182 205.972 155.596C205.734 155.768 204.781 154.653 203.71 152.938C200.496 147.882 197.123 145.696 191.964 145.311C184.385 144.753 179.504 149.039 179.544 156.195C179.544 158.296 179.821 159.539 180.615 161.253C182.282 164.982 185.377 167.21 195.099 171.753C212.996 180.068 220.654 185.553 225.417 193.353C230.734 202.054 231.924 215.939 228.313 226.268C224.345 237.496 214.505 245.125 200.654 247.653C196.369 248.468 186.211 248.339 181.607 247.439C171.568 245.51 162.044 240.154 156.171 233.125C153.869 230.382 149.384 223.225 149.663 222.71C149.782 222.539 150.813 221.854 151.964 221.125C153.075 220.439 157.282 217.824 161.25 215.339L168.432 210.839L169.94 213.239C172.044 216.71 176.646 221.468 179.424 223.053C187.4 227.596 198.353 226.953 203.75 221.724C206.051 219.453 207.004 217.096 207.004 213.624C207.004 210.496 206.646 209.125 205.138 206.768C203.195 203.768 199.226 201.239 187.956 195.968C175.059 189.967 169.504 186.239 164.424 180.324C161.488 176.897 158.71 171.41 157.559 166.824C156.607 163.011 156.368 153.453 157.123 149.596C159.782 136.138 169.186 126.754 182.757 123.967C187.162 123.067 197.4 123.41 201.726 124.568V124.567Z" fill="white"/>
</svg>
