<svg width="250" height="270" viewBox="0 0 250 270" fill="none" xmlns="http://www.w3.org/2000/svg">
<path d="M205.55 87.4242C202.889 86.3172 200.206 85.2918 197.503 84.3488C197.957 82.0988 198.375 79.876 198.746 77.6923C204.838 41.8332 200.855 12.9444 187.253 3.43286C174.211 -5.68556 152.882 3.82246 131.341 26.5557C129.218 28.8002 127.142 31.1094 125.115 33.481C123.758 31.904 122.378 30.3575 120.974 28.8425C98.3975 4.53536 75.7686 -5.70925 62.1807 3.82957C49.1504 12.9764 45.292 40.1339 50.7764 74.1184C51.322 77.4842 51.9381 80.8326 52.624 84.1605C49.4209 85.2642 46.3301 86.4389 43.3721 87.6894C16.9033 98.8802 0 116.417 0 134.608C0 153.395 18.1465 172.24 45.7148 183.666C47.9499 184.589 50.2035 185.444 52.4736 186.23C51.7364 189.814 51.0818 193.423 50.5107 197.051C45.2822 230.446 49.3652 256.962 62.3604 266.05C75.7822 275.437 98.3096 265.79 120.244 242.538C122.023 240.648 123.762 238.704 125.461 236.708C127.656 239.276 129.909 241.769 132.219 244.185C153.467 266.356 174.451 275.309 187.434 266.195C200.843 256.782 205.201 228.297 199.543 193.641C199.097 190.926 198.597 188.224 198.044 185.538C199.626 184.97 201.179 184.385 202.692 183.776C231.353 172.262 250 153.646 250 134.608C250 116.351 232.551 98.6955 205.55 87.4242V87.4242ZM199.334 171.484C197.967 172.032 196.564 172.562 195.135 173.077C191.971 160.93 187.701 148.015 182.476 134.671C187.462 121.644 191.567 108.894 194.643 96.8268C197.2 97.7244 199.682 98.6706 202.074 99.6689C225.209 109.327 239.32 123.605 239.32 134.608C239.32 146.327 224.08 161.54 199.334 171.484V171.484ZM189.066 196.156C191.568 211.48 191.925 225.335 190.268 236.167C188.779 245.9 185.785 252.388 182.082 254.988C174.204 260.518 157.355 253.33 139.185 234.368C137.036 232.122 134.94 229.804 132.898 227.417C139.943 218.075 146.983 207.214 153.854 195.152C165.94 193.852 177.358 191.725 187.713 188.822C188.223 191.317 188.676 193.764 189.066 196.156V196.156ZM85.2305 254.032C77.5332 257.328 71.4023 257.422 67.6963 254.831C59.8105 249.316 56.5322 228.025 61.0039 199.467C61.5355 196.092 62.1441 192.736 62.8291 189.402C73.0693 192.15 84.4043 194.125 96.5186 195.316C103.437 207.119 110.68 217.968 117.979 227.468C116.428 229.288 114.84 231.062 113.217 232.787C103.517 243.068 93.7969 250.363 85.2305 254.032V254.032ZM49.1699 171.412C36.9795 166.359 26.9121 159.792 20.0117 152.627C13.8105 146.188 10.6807 139.795 10.6807 134.608C10.6807 123.569 24.252 109.488 46.8877 99.9188C49.6348 98.7582 52.5098 97.6628 55.4932 96.6349C58.6221 108.974 62.7256 121.876 67.6777 134.923C62.6611 148.162 58.499 161.27 55.3398 173.755C53.2677 173.036 51.2104 172.254 49.1699 171.412V171.412ZM61.2578 71.6303C56.5596 42.5142 59.6797 20.5506 67.5322 15.0381C75.8955 9.1668 94.3896 17.538 113.883 38.5269C115.154 39.8987 116.404 41.2983 117.634 42.725C110.37 52.1832 103.193 62.9513 96.3369 74.6844C84.5791 76.006 73.3242 78.1281 62.9766 80.9714C62.339 77.8761 61.7659 74.7618 61.2578 71.6315V71.6303ZM169.097 103.921C166.653 98.802 164.118 93.747 161.494 88.76C169.471 89.9832 177.113 91.6068 184.29 93.5915C182.136 101.966 179.45 110.721 176.289 119.697C173.978 114.381 171.581 109.121 169.097 103.921V103.921ZM125.12 51.9807C130.046 58.4525 134.979 65.6773 139.832 73.5168C129.988 72.953 120.128 72.9507 110.284 73.5097C115.142 65.7425 120.117 58.5271 125.12 51.9807ZM80.8613 104.01C78.4085 109.168 76.0554 114.395 73.8037 119.687C70.6943 110.742 68.0332 101.947 65.8604 93.4542C72.9932 91.5192 80.5996 89.9371 88.5254 88.7363C85.8725 93.7537 83.3171 98.8461 80.8613 104.009V104.01ZM88.7529 181.401C80.5645 180.292 72.8438 178.792 65.7129 176.909C67.9199 168.264 70.6396 159.282 73.8164 150.146C76.077 155.441 78.4399 160.671 80.9033 165.832C83.4365 171.137 86.0596 176.334 88.7529 181.401ZM125.415 218.147C120.353 211.525 115.304 204.198 110.373 196.318C115.16 196.546 120.04 196.662 125 196.662C130.096 196.662 135.133 196.523 140.091 196.255C135.223 204.277 130.308 211.615 125.415 218.147ZM176.39 149.679C179.731 158.916 182.548 167.851 184.784 176.348C177.536 178.354 169.71 179.969 161.464 181.169C164.106 176.089 166.665 170.946 169.139 165.743C171.654 160.454 174.071 155.098 176.39 149.679V149.679ZM159.888 159.273C156.101 167.25 152.101 175.076 147.895 182.738C140.275 183.392 132.639 183.717 125 183.712C117.22 183.712 109.652 183.419 102.365 182.845C98.0491 175.201 93.9729 167.362 90.1455 159.344H90.1465C86.3371 151.368 82.7789 143.22 79.4795 134.917C82.7705 126.612 86.3179 118.46 90.1143 110.478L90.1133 110.48C93.9082 102.496 97.9518 94.6898 102.235 87.0784C109.67 86.3963 117.294 86.041 124.999 86.041H125C132.74 86.041 140.374 86.3998 147.807 87.0867C152.047 94.6868 156.065 102.466 159.853 110.41C163.662 118.374 167.256 126.486 170.63 134.733C167.291 143.065 163.708 151.25 159.888 159.273V159.273ZM181.919 14.6521C190.29 20.5068 193.546 44.1164 188.286 75.0776C187.95 77.0528 187.573 79.0648 187.163 81.1052C176.79 78.2015 165.527 76.0427 153.735 74.701C146.866 62.8388 139.748 52.0542 132.603 42.7178C134.475 40.5288 136.392 38.3966 138.353 36.3231C156.81 16.8464 174.06 9.15614 181.919 14.6521V14.6521ZM125 107.537C137.329 107.537 147.324 119.657 147.324 134.608C147.324 149.558 137.329 161.679 125 161.679C112.671 161.679 102.676 149.558 102.676 134.608C102.676 119.657 112.671 107.537 125 107.537V107.537Z" fill="#00D8FF"/>
</svg>
