<svg width="250" height="270" viewBox="0 0 250 270" fill="none" xmlns="http://www.w3.org/2000/svg">
<path d="M123.941 0.0761719C60.6289 0.0761719 64.582 29.845 64.582 29.845L64.6523 60.6864H125.07V69.9458H40.6553C40.6553 69.9458 0.141602 64.964 0.141602 134.227C0.141602 203.492 35.5029 201.036 35.5029 201.036H56.6064V168.894C56.6064 168.894 55.4688 130.554 91.4033 130.554H151.327C151.327 130.554 184.994 131.144 184.994 95.275V35.9682C184.994 35.9682 190.107 0.0761719 123.941 0.0761719ZM90.627 20.8164C92.0547 20.815 93.4686 21.1189 94.7879 21.7106C96.1072 22.3024 97.3059 23.1704 98.3155 24.265C99.325 25.3595 100.126 26.6592 100.671 28.0897C101.217 29.5201 101.497 31.0531 101.496 32.6011C101.497 34.1491 101.217 35.6822 100.671 37.1126C100.126 38.543 99.325 39.8427 98.3155 40.9373C97.3059 42.0319 96.1072 42.8999 94.7879 43.4916C93.4686 44.0833 92.0547 44.3872 90.627 44.3858C89.1992 44.3872 87.7853 44.0833 86.466 43.4916C85.1467 42.8999 83.948 42.0319 82.9385 40.9373C81.9289 39.8427 81.1283 38.543 80.5826 37.1126C80.0368 35.6822 79.7565 34.1491 79.7578 32.6011C79.7565 31.0531 80.0368 29.5201 80.5826 28.0897C81.1283 26.6592 81.9289 25.3595 82.9385 24.265C83.948 23.1704 85.1467 22.3024 86.466 21.7106C87.7853 21.1189 89.1992 20.815 90.627 20.8164V20.8164Z" fill="url(#paint0_linear)"/>
<path d="M125.739 269.075C189.052 269.075 185.099 239.306 185.099 239.306L185.028 208.465H124.609V199.206H209.024C209.024 199.206 249.538 204.188 249.538 134.923C249.538 65.6588 214.177 68.1153 214.177 68.1153H193.073V100.256C193.073 100.256 194.211 138.596 158.276 138.596H98.3526C98.3526 138.596 64.6856 138.006 64.6856 173.876V233.184C64.6856 233.184 59.5733 269.075 125.738 269.075H125.739ZM159.054 248.337C157.626 248.338 156.212 248.034 154.893 247.442C153.574 246.851 152.375 245.983 151.365 244.888C150.356 243.793 149.555 242.494 149.009 241.063C148.464 239.633 148.183 238.1 148.185 236.552C148.183 235.004 148.463 233.471 149.009 232.04C149.555 230.61 150.355 229.31 151.365 228.215C152.374 227.12 153.573 226.252 154.893 225.66C156.212 225.069 157.626 224.765 159.054 224.766C160.481 224.765 161.895 225.069 163.215 225.66C164.534 226.252 165.733 227.12 166.742 228.215C167.752 229.309 168.552 230.609 169.098 232.039C169.644 233.47 169.924 235.003 169.923 236.551C169.924 238.099 169.644 239.632 169.098 241.062C168.552 242.493 167.752 243.792 166.742 244.887C165.733 245.982 164.534 246.85 163.215 247.441C161.895 248.033 160.481 248.337 159.054 248.335V248.337Z" fill="url(#paint1_linear)"/>
<defs>
<linearGradient id="paint0_linear" x1="24.1085" y1="24.271" x2="157.568" y2="146.134" gradientUnits="userSpaceOnUse">
<stop stop-color="#387EB8"/>
<stop offset="1" stop-color="#366994"/>
</linearGradient>
<linearGradient id="paint1_linear" x1="99.9701" y1="109.462" x2="242.759" y2="233.958" gradientUnits="userSpaceOnUse">
<stop stop-color="#FFE052"/>
<stop offset="1" stop-color="#FFC331"/>
</linearGradient>
</defs>
</svg>
