<svg width="250" height="270" viewBox="0 0 250 270" fill="none" xmlns="http://www.w3.org/2000/svg">
<path d="M249.565 52.9275L226.869 247.657L124.848 269.318L23.1074 247.686L0.43457 52.9275H249.565Z" fill="#E44D26"/>
<path d="M125 252.76L207.438 235.257L226.833 68.8516H125V252.76Z" fill="#F16529"/>
<path d="M80.8789 116.625H125V92.7386H46.7939L47.54 99.1468L55.2061 164.971H125V141.085H83.7295L80.8789 116.625V116.625Z" fill="#EBEBEB"/>
<path d="M87.9082 176.915H56.5996L60.9687 214.42L124.856 228.003L125 227.973V203.121L124.863 203.148L90.1289 195.965L87.9082 176.915V176.915Z" fill="#EBEBEB"/>
<path d="M23.6133 0H39.4629V11.9929H53.9619V0H69.8125V36.3176H53.9629V24.1564H39.4639V36.3176H23.6143V0H23.6133Z" fill="black"/>
<path d="M90.6543 12.0438H76.7031V0H120.467V12.0438H106.507V36.3176H90.6572V12.0438H90.6563H90.6543Z" fill="black"/>
<path d="M127.412 0H143.938L154.104 12.7611L164.261 0H180.794V36.3176H165.009V18.3166L154.104 31.2295H153.831L142.92 18.3166V36.3176H127.412V0Z" fill="black"/>
<path d="M188.682 0H204.536V24.3135H226.825V36.3176H188.681V0H188.682Z" fill="black"/>
<path d="M124.893 164.971H163.298L159.677 195.95L124.892 203.141V227.991L188.83 214.42L189.299 210.385L196.629 147.499L197.39 141.085H124.893V164.971Z" fill="white"/>
<path d="M124.893 116.567V116.625H200.228L200.853 111.256L202.274 99.1468L203.02 92.7386H124.893V116.567V116.567Z" fill="white"/>
</svg>
