<svg width="250" height="270" viewBox="0 0 250 270" fill="none" xmlns="http://www.w3.org/2000/svg">
<path d="M124.848 269.318L23.1074 247.687L0.43457 52.9275H249.565L226.869 247.657L124.848 269.318V269.318Z" fill="#264DE4"/>
<path d="M207.438 235.257L226.833 68.8514H125V252.76L207.438 235.257V235.257Z" fill="#2965F1"/>
<path d="M52.4111 141.085L55.2061 164.971H125V141.085H52.4111Z" fill="#EBEBEB"/>
<path d="M46.7939 92.7386L49.6289 116.625H125V92.7386H46.7939V92.7386Z" fill="#EBEBEB"/>
<path d="M125 203.121L124.863 203.148L90.1288 195.965L87.9081 176.915H56.5995L60.9686 214.42L124.856 228.003L125 227.973V203.121Z" fill="#EBEBEB"/>
<path d="M59.0663 0H96.8397V12.0984H74.8632V24.1968H96.8417V36.2944H59.0663V0Z" fill="black"/>
<path d="M104.395 0H142.17V10.5203H120.192V12.6242H142.17V36.821H104.396V25.7734H126.374V23.6695H104.394V0H104.395Z" fill="black"/>
<path d="M149.726 0H187.5V10.5203H165.523V12.6242H187.5V36.821H149.726V25.7734H171.703V23.6695H149.727V0H149.726Z" fill="black"/>
<path d="M197.39 141.085L203.02 92.7386H124.893V116.625H168.84L166.002 141.085H124.893V164.971H163.298L159.677 195.95L124.892 203.141V227.991L188.83 214.42L189.299 210.385L196.629 147.499L197.39 141.085V141.085Z" fill="white"/>
</svg>
