<svg width="370" height="352" viewBox="0 0 370 352" fill="none" xmlns="http://www.w3.org/2000/svg">
<g filter="url(#filter0_d)">
<circle cx="197.5" cy="137.5" r="108.5" stroke="white" stroke-width="8"/>
</g>
<path d="M262 94.5C-99.2997 93.7229 527.821 177.708 115 173.5" stroke="black"/>
<path d="M119.5 197L199 43L271.5 197" stroke="black"/>
<path d="M117.582 294.32H106.859L104.451 301H100.971L110.744 275.406H113.697L123.488 301H120.025L117.582 294.32ZM107.879 291.543H116.58L112.221 279.572L107.879 291.543ZM129.957 301H126.705V274H129.957V301ZM143.07 301.352C140.492 301.352 138.395 300.508 136.777 298.82C135.16 297.121 134.352 294.854 134.352 292.018V291.42C134.352 289.533 134.709 287.852 135.424 286.375C136.15 284.887 137.158 283.727 138.447 282.895C139.748 282.051 141.154 281.629 142.666 281.629C145.139 281.629 147.061 282.443 148.432 284.072C149.803 285.701 150.488 288.033 150.488 291.068V292.422H137.604C137.65 294.297 138.195 295.814 139.238 296.975C140.293 298.123 141.629 298.697 143.246 298.697C144.395 298.697 145.367 298.463 146.164 297.994C146.961 297.525 147.658 296.904 148.256 296.131L150.242 297.678C148.648 300.127 146.258 301.352 143.07 301.352ZM142.666 284.301C141.354 284.301 140.252 284.781 139.361 285.742C138.471 286.691 137.92 288.027 137.709 289.75H147.236V289.504C147.143 287.852 146.697 286.574 145.9 285.672C145.104 284.758 144.025 284.301 142.666 284.301ZM160.648 288.924L164.867 281.98H168.664L162.441 291.385L168.857 301H165.096L160.701 293.881L156.307 301H152.527L158.943 291.385L152.721 281.98H156.482L160.648 288.924ZM189.107 289.592C186.213 288.76 184.104 287.74 182.779 286.533C181.467 285.314 180.811 283.814 180.811 282.033C180.811 280.018 181.613 278.354 183.219 277.041C184.836 275.717 186.934 275.055 189.512 275.055C191.27 275.055 192.834 275.395 194.205 276.074C195.588 276.754 196.654 277.691 197.404 278.887C198.166 280.082 198.547 281.389 198.547 282.807H195.154C195.154 281.26 194.662 280.047 193.678 279.168C192.693 278.277 191.305 277.832 189.512 277.832C187.848 277.832 186.547 278.201 185.609 278.939C184.684 279.666 184.221 280.68 184.221 281.98C184.221 283.023 184.66 283.908 185.539 284.635C186.43 285.35 187.936 286.006 190.057 286.604C192.189 287.201 193.854 287.863 195.049 288.59C196.256 289.305 197.146 290.143 197.721 291.104C198.307 292.064 198.6 293.195 198.6 294.496C198.6 296.57 197.791 298.234 196.174 299.488C194.557 300.73 192.395 301.352 189.688 301.352C187.93 301.352 186.289 301.018 184.766 300.35C183.242 299.67 182.064 298.744 181.232 297.572C180.412 296.4 180.002 295.07 180.002 293.582H183.395C183.395 295.129 183.963 296.354 185.1 297.256C186.248 298.146 187.777 298.592 189.688 298.592C191.469 298.592 192.834 298.229 193.783 297.502C194.732 296.775 195.207 295.785 195.207 294.531C195.207 293.277 194.768 292.311 193.889 291.631C193.01 290.939 191.416 290.26 189.107 289.592ZM210.061 298.697C211.221 298.697 212.234 298.346 213.102 297.643C213.969 296.939 214.449 296.061 214.543 295.006H217.619C217.561 296.096 217.186 297.133 216.494 298.117C215.803 299.102 214.877 299.887 213.717 300.473C212.568 301.059 211.35 301.352 210.061 301.352C207.471 301.352 205.408 300.49 203.873 298.768C202.35 297.033 201.588 294.666 201.588 291.666V291.121C201.588 289.27 201.928 287.623 202.607 286.182C203.287 284.74 204.26 283.621 205.525 282.824C206.803 282.027 208.309 281.629 210.043 281.629C212.176 281.629 213.945 282.268 215.352 283.545C216.77 284.822 217.525 286.48 217.619 288.52H214.543C214.449 287.289 213.98 286.281 213.137 285.496C212.305 284.699 211.273 284.301 210.043 284.301C208.391 284.301 207.107 284.898 206.193 286.094C205.291 287.277 204.84 288.994 204.84 291.244V291.859C204.84 294.051 205.291 295.738 206.193 296.922C207.096 298.105 208.385 298.697 210.061 298.697ZM224.527 284.283C225.969 282.514 227.844 281.629 230.152 281.629C234.172 281.629 236.199 283.896 236.234 288.432V301H232.982V288.414C232.971 287.043 232.654 286.029 232.033 285.373C231.424 284.717 230.469 284.389 229.168 284.389C228.113 284.389 227.188 284.67 226.391 285.232C225.594 285.795 224.973 286.533 224.527 287.447V301H221.275V274H224.527V284.283ZM244.162 281.98L244.25 284.09C245.645 282.449 247.525 281.629 249.893 281.629C252.553 281.629 254.363 282.648 255.324 284.688C255.957 283.773 256.777 283.035 257.785 282.473C258.805 281.91 260.006 281.629 261.389 281.629C265.561 281.629 267.682 283.838 267.752 288.256V301H264.5V288.449C264.5 287.09 264.189 286.076 263.568 285.408C262.947 284.729 261.904 284.389 260.439 284.389C259.232 284.389 258.23 284.752 257.434 285.479C256.637 286.193 256.174 287.16 256.045 288.379V301H252.775V288.537C252.775 285.771 251.422 284.389 248.715 284.389C246.582 284.389 245.123 285.297 244.338 287.113V301H241.086V281.98H244.162ZM276.207 301H272.955V281.98H276.207V301ZM272.691 276.936C272.691 276.408 272.85 275.963 273.166 275.6C273.494 275.236 273.975 275.055 274.607 275.055C275.24 275.055 275.721 275.236 276.049 275.6C276.377 275.963 276.541 276.408 276.541 276.936C276.541 277.463 276.377 277.902 276.049 278.254C275.721 278.605 275.24 278.781 274.607 278.781C273.975 278.781 273.494 278.605 273.166 278.254C272.85 277.902 272.691 277.463 272.691 276.936ZM285.84 277.375V281.98H289.391V284.494H285.84V296.289C285.84 297.051 285.998 297.625 286.314 298.012C286.631 298.387 287.17 298.574 287.932 298.574C288.307 298.574 288.822 298.504 289.479 298.363V301C288.623 301.234 287.791 301.352 286.982 301.352C285.529 301.352 284.434 300.912 283.695 300.033C282.957 299.154 282.588 297.906 282.588 296.289V284.494H279.125V281.98H282.588V277.375H285.84ZM297.617 277.375V281.98H301.168V284.494H297.617V296.289C297.617 297.051 297.775 297.625 298.092 298.012C298.408 298.387 298.947 298.574 299.709 298.574C300.084 298.574 300.6 298.504 301.256 298.363V301C300.4 301.234 299.568 301.352 298.76 301.352C297.307 301.352 296.211 300.912 295.473 300.033C294.734 299.154 294.365 297.906 294.365 296.289V284.494H290.902V281.98H294.365V277.375H297.617ZM206.51 320.184H198.283V343H194.926V320.184H186.717V317.406H206.51V320.184ZM213.928 343H210.553V317.406H213.928V343Z" fill="black"/>
<defs>
<filter id="filter0_d" x="65" y="5" width="265" height="265" filterUnits="userSpaceOnUse" color-interpolation-filters="sRGB">
<feFlood flood-opacity="0" result="BackgroundImageFix"/>
<feColorMatrix in="SourceAlpha" type="matrix" values="0 0 0 0 0 0 0 0 0 0 0 0 0 0 0 0 0 0 127 0"/>
<feOffset/>
<feGaussianBlur stdDeviation="10"/>
<feColorMatrix type="matrix" values="0 0 0 0 0.188235 0 0 0 0 0.180392 0 0 0 0 0.301961 0 0 0 0.15 0"/>
<feBlend mode="normal" in2="BackgroundImageFix" result="effect1_dropShadow"/>
<feBlend mode="normal" in="SourceGraphic" in2="effect1_dropShadow" result="shape"/>
</filter>
</defs>
</svg>
